<svg width="1039" height="973" viewBox="0 0 1039 973" fill="none" xmlns="http://www.w3.org/2000/svg">
<path d="M399.833 533.167C473.471 533.167 533.167 473.471 533.167 399.833C533.167 326.195 473.471 266.5 399.833 266.5C326.195 266.5 266.5 326.195 266.5 399.833C266.5 473.471 326.195 533.167 399.833 533.167Z" stroke="black" stroke-width="16.6667" stroke-linecap="round" stroke-linejoin="round"/>
<path d="M47.1665 462.5C76.6665 630.5 223.333 758.167 399.833 758.167C576.333 758.167 723 630.5 752.5 462.5H607.333C580.5 551.667 497.666 616.5 399.833 616.5C302 616.5 219.166 551.667 192.333 462.5H47.1665Z" stroke="black" stroke-width="16.6667" stroke-linecap="round" stroke-linejoin="round"/>
<path d="M47 337.5C76.5 169.333 223.333 41.5 399.833 41.5C576.333 41.5 723.167 169.333 752.667 337.5H607.5C580.667 248.167 497.833 183.167 399.833 183.167C301.833 183.167 219 248.167 192.167 337.5H47Z" stroke="black" stroke-width="16.6667" stroke-linecap="round" stroke-linejoin="round"/>
<path d="M956.042 960.6C976.808 978.802 1008.4 976.724 1026.6 955.958C1044.8 935.192 1042.72 903.602 1021.96 885.4L956.042 960.6ZM632.042 676.6L956.042 960.6L1021.96 885.4L697.958 601.4L632.042 676.6Z" fill="black"/>
</svg>
