<svg width="67" height="93" viewBox="0 0 67 93" fill="none" xmlns="http://www.w3.org/2000/svg">
<path d="M11.0516 92.8358H1C0.447715 92.8358 0 92.3881 0 91.8358V1.00549C0 0.453208 0.447716 0.00549316 1 0.00549316H11.0517C11.6039 0.00549316 12.0517 0.453208 12.0517 1.00549V91.8358C12.0517 92.3881 11.6039 92.8358 11.0516 92.8358Z" fill="#9B1B30"/>
<path d="M43.3578 56.2404L34.7775 58.6926C34.153 58.8711 33.8617 59.5884 34.185 60.1518L52.6491 92.3334C52.8274 92.6441 53.1582 92.8357 53.5165 92.8357H64.3575C65.1342 92.8357 65.6144 91.9888 65.2155 91.3223L44.4907 56.6884C44.2581 56.2998 43.7933 56.1159 43.3578 56.2404Z" fill="#5C101C"/>
<path d="M47.3923 28.4475C47.3923 10.3515 33.3864 9.27323 12.0517 10.4107L9.91821 0.00551548C30.1129 0.00551524 59.6069 -1.10977 59.6069 28.4475C59.6069 41.772 54.3953 57.0065 12.0517 55.0965V44.8594C41.0408 46.9718 47.3923 41.2845 47.3923 28.4475Z" fill="#9B1B30"/>
</svg>
